{"title":"Revolution Z - Sex luji i muzika (S02E03)","uid":8259627,"size":997244402,"categoryP":"video","categoryS":"tv_shows","magnet":"?xt=urn:btih:3d1e25af9ecb20cf8897d42eafeb5477b28b3075&amp;dn=Revolution+Z+-+Sex+luji+i+muzika+%28S02E03%29&amp;tr=udp%3A%2F%2Ftracker.openbittorrent.com%3A80&amp;tr=udp%3A%2F%2Fopen.demonii.com%3A1337&amp;tr=udp%3A%2F%2Ftracker.coppersurfer.tk%3A6969&amp;tr=udp%3A%2F%2Fexodus.desync.com%3A6969","seeders":1,"leechers":0,"uploader":null,"files":1,"time":1363306859,"description":"Revolution Z Sex, Lies and Music.S02E03.WEB.Rip.MP4.MC.FREEPLAY.mp4\n\n   General\n      Complete name : \nRevolution Z Sex, Lies and Music.S02E03.WEB.Rip.MP4.MC.FREEPLAY.mp4\n      Format : MPEG-4\n      Format profile : Base Media / Version 2\n      Codec ID : mp42\n      File size : 951 MiB\n      Duration : 50mn 36s\n      Overall bit rate : 2 628 Kbps\n      Encoded date : UTC 2013-03-15 10:47:05\n      Tagged date : UTC 2013-03-15 10:47:05\n   Video #1\n      ID : 1\n      Format : MPEG-4 Visual\n      Format profile : AdvancedSimple@L5\n      Format settings, BVOP : No\n      Format settings, QPel : No\n      Format settings, GMC : No warppoints\n      Format settings, Matrix : Default (H.263)\n      Codec ID : 20\n      Duration : 50mn 36s\n      Bit rate mode : Variable\n      Bit rate : 2 499 Kbps\n      Maximum bit rate : 24.7 Mbps\n      Width : 1 280 pixels\n      Height : 720 pixels\n      Display aspect ratio : 16:9\n      Frame rate mode : Constant\n      Frame rate : 30.000 fps\n      Resolution : 24 bits\n      Colorimetry : 4:2:0\n      Scan type : Progressive\n      Bits/(Pixel*Frame) : 0.090\n      Stream size : 904 MiB (95%)\n      Language : English\n      Encoded date : UTC 2013-03-15 10:47:05\n      Tagged date : UTC 2013-03-15 10:47:05\n   Audio #2\n      ID : 2\n      Format : AAC\n      Format/Info : Advanced Audio Codec\n      Format version : Version 4\n      Format profile : LC\n      Format settings, SBR : No\n      Codec ID : 40\n      Duration : 50mn 36s\n      Bit rate mode : Variable\n      Bit rate : 126 Kbps\n      Maximum bit rate : 383 Kbps\n      Channel(s) : 2 channels\n      Channel positions : L R\n      Sampling rate : 44.1 KHz\n      Resolution : 16 bits\n      Stream size : 45.5 MiB (5%)\n      Language : English\n      Encoded date : UTC 2013-03-15 10:47:05\n      Tagged date : UTC 2013-03-15 10:47:05","torrent":{"xt":"urn:btih:3d1e25af9ecb20cf8897d42eafeb5477b28b3075","amp;dn":"Revolution+Z+-+Sex+luji+i+muzika+%28S02E03%29","amp;tr":["udp%3A%2F%2Ftracker.openbittorrent.com%3A80","udp%3A%2F%2Fopen.demonii.com%3A1337","udp%3A%2F%2Ftracker.coppersurfer.tk%3A6969","udp%3A%2F%2Fexodus.desync.com%3A6969"],"infoHash":"3d1e25af9ecb20cf8897d42eafeb5477b28b3075","infoHashBuffer":{"type":"Buffer","data":[61,30,37,175,158,203,32,207,136,151,212,46,175,235,84,119,178,139,48,117]},"announce":[],"urlList":[]}}